<svg xmlns="http://www.w3.org/2000/svg" xmlns:xlink="http://www.w3.org/1999/xlink" viewBox="0 0 1544.18 509.42"><defs><style>.cls-1{fill:url(#Sfumatura_senza_nome_68);}.cls-2{fill:url(#Sfumatura_senza_nome_68-2);}.cls-3{fill:url(#Sfumatura_senza_nome_68-3);}.cls-4{fill:url(#Sfumatura_senza_nome_68-4);}.cls-5{fill:url(#Sfumatura_senza_nome_68-5);}.cls-6{fill:url(#Sfumatura_senza_nome_72);}.cls-7{fill:url(#Sfumatura_senza_nome_72-2);}.cls-8{fill:url(#Sfumatura_senza_nome_72-3);}.cls-9{fill:url(#Sfumatura_senza_nome_72-4);}.cls-10{fill:url(#Sfumatura_senza_nome_72-5);}.cls-11{fill:url(#Sfumatura_senza_nome_72-6);}.cls-12{fill:url(#Sfumatura_senza_nome_58);}.cls-13{fill:url(#Sfumatura_senza_nome_58-2);}.cls-14{fill:url(#Sfumatura_senza_nome_58-3);}.cls-15{fill:url(#Sfumatura_senza_nome_58-4);}.cls-16{fill:url(#Sfumatura_senza_nome_58-5);}.cls-17{fill:url(#Sfumatura_senza_nome_58-6);}</style><linearGradient id="Sfumatura_senza_nome_68" x1="563.17" y1="221.09" x2="639.19" y2="264.98" gradientUnits="userSpaceOnUse"><stop offset="0" stop-color="#6c4897"/><stop offset="0.4" stop-color="#6c4897"/><stop offset="0.56" stop-color="#694692"/><stop offset="0.73" stop-color="#5e3f85"/><stop offset="0.91" stop-color="#4d346f"/><stop offset="1" stop-color="#422c60"/></linearGradient><linearGradient id="Sfumatura_senza_nome_68-2" x1="584.5" y1="186.88" x2="646.23" y2="222.53" xlink:href="#Sfumatura_senza_nome_68"/><linearGradient id="Sfumatura_senza_nome_68-3" x1="566.33" y1="154.68" x2="630.36" y2="191.65" xlink:href="#Sfumatura_senza_nome_68"/><linearGradient id="Sfumatura_senza_nome_68-4" x1="569.76" y1="106.77" x2="633.8" y2="143.75" xlink:href="#Sfumatura_senza_nome_68"/><linearGradient id="Sfumatura_senza_nome_68-5" x1="527.19" y1="22.18" x2="600.67" y2="64.61" xlink:href="#Sfumatura_senza_nome_68"/><linearGradient id="Sfumatura_senza_nome_72" x1="1055.88" y1="262.1" x2="1099.19" y2="287.11" xlink:href="#Sfumatura_senza_nome_68"/><linearGradient id="Sfumatura_senza_nome_72-2" x1="1066.25" y1="220.47" x2="1110.24" y2="245.87" xlink:href="#Sfumatura_senza_nome_68"/><linearGradient id="Sfumatura_senza_nome_72-3" x1="1080.02" y1="152.26" x2="1126.71" y2="179.22" xlink:href="#Sfumatura_senza_nome_68"/><linearGradient id="Sfumatura_senza_nome_72-4" x1="1090.87" y1="132.08" x2="1134.32" y2="157.16" xlink:href="#Sfumatura_senza_nome_68"/><linearGradient id="Sfumatura_senza_nome_72-5" x1="1101.06" y1="93.57" x2="1143.56" y2="118.11" xlink:href="#Sfumatura_senza_nome_68"/><linearGradient id="Sfumatura_senza_nome_72-6" x1="1091" y1="39.83" x2="1136.95" y2="66.36" xlink:href="#Sfumatura_senza_nome_68"/><linearGradient id="Sfumatura_senza_nome_58" x1="-54.41" y1="-23.18" x2="323.88" y2="355.11" gradientUnits="userSpaceOnUse"><stop offset="0" stop-color="#6c4897"/><stop offset="0.27" stop-color="#694693"/><stop offset="0.54" stop-color="#5f4086"/><stop offset="0.82" stop-color="#503572"/><stop offset="1" stop-color="#422c60"/></linearGradient><linearGradient id="Sfumatura_senza_nome_58-2" x1="-51.38" y1="-9.1" x2="315.35" y2="357.63" xlink:href="#Sfumatura_senza_nome_58"/><linearGradient id="Sfumatura_senza_nome_58-3" x1="-82.62" y1="9.43" x2="290.7" y2="382.76" xlink:href="#Sfumatura_senza_nome_58"/><linearGradient id="Sfumatura_senza_nome_58-4" x1="-16.6" y1="-50.87" x2="356.76" y2="322.49" xlink:href="#Sfumatura_senza_nome_58"/><linearGradient id="Sfumatura_senza_nome_58-5" x1="-58.6" y1="-14.69" x2="316.61" y2="360.53" xlink:href="#Sfumatura_senza_nome_58"/><linearGradient id="Sfumatura_senza_nome_58-6" x1="-52.31" y1="-22.29" x2="324.05" y2="354.06" xlink:href="#Sfumatura_senza_nome_58"/></defs><title>Tavola disegno 3</title><g id="Livello_2" data-name="Livello 2"><path class="cls-1" d="M640.75,270.61a12.45,12.45,0,0,0,6.15-1.5l-.75,16.95a24.44,24.44,0,0,1-16,5.85q-20.4,0-20.4-17.1a37.77,37.77,0,0,1,.6-6.45l3.3-18.45a32.79,32.79,0,0,0,.45-5.4q0-7.2-7.58-7.2t-11.77,5.1l-8.4,47.4H560.8L580.9,176h25.5l-8.55,48.45a27.11,27.11,0,0,1,20.7-8.85q15.15,0,19.65,6.75a17.12,17.12,0,0,1,3.15,10.05,53.77,53.77,0,0,1-.9,10.2l-4.05,22.35a10.1,10.1,0,0,0-.15,1.65Q636.25,270.61,640.75,270.61Z"/><path class="cls-2" d="M726.1,266.71q0,3.9,4,3.9a13.61,13.61,0,0,0,6.68-1.5L736,286.06a25,25,0,0,1-16.2,5.85q-16.5,0-18.3-12-7.5,12-22,12-24.6,0-24.6-21.15a47.11,47.11,0,0,1,.75-7.95l3.15-17.55q2.4-13.5,11-21.52t22.5-8q13.88,0,18.83,6.45l.75-4.5h22.8l-8.4,47.25A10.93,10.93,0,0,0,726.1,266.71Zm-44.4-7.2a18.19,18.19,0,0,0-.3,3.75,6.86,6.86,0,0,0,2.25,4.73q2.25,2.33,7.57,2.32a12.2,12.2,0,0,0,9.23-4.2l4.5-25.2q-1.65-3.75-7.8-3.75-11.55,0-13.5,11.1Z"/><path class="cls-3" d="M798.1,215.71q15.3,0,21.15,8.1,4.18,5.55,4.2,14.1a39,39,0,0,1-.75,7.35l-3,17.55q-2.57,14.25-11,21.68t-21,7.42q-12.6,0-17.55-6.75l-8.1,46.35H736.6l20.1-113.85h23.1l-.75,4.05Q786.09,215.71,798.1,215.71Zm-15.6,54.6a12.76,12.76,0,0,0,7.8-2.7,12.12,12.12,0,0,0,4.5-8.1l2-11.25a19.58,19.58,0,0,0,.3-3.75,8.13,8.13,0,0,0-1.95-4.8q-2-2.55-6.75-2.55c-5.2,0-8.61,1.25-10.2,3.75l-4.5,25.2C775,268.91,778,270.31,782.5,270.31Z"/><path class="cls-4" d="M884.49,215.71q15.3,0,21.15,8.1,4.2,5.55,4.2,14.1a39,39,0,0,1-.75,7.35l-3,17.55q-2.55,14.25-11,21.68t-21,7.42q-12.6,0-17.55-6.75l-8.1,46.35H823l20.1-113.85h23.1l-.75,4.05Q872.49,215.71,884.49,215.71Zm-15.6,54.6a12.74,12.74,0,0,0,7.8-2.7,12.12,12.12,0,0,0,4.5-8.1l1.95-11.25a19.58,19.58,0,0,0,.3-3.75,8.06,8.06,0,0,0-2-4.8q-1.95-2.55-6.75-2.55-7.8,0-10.2,3.75l-4.5,25.2Q862.14,270.31,868.89,270.31Z"/><path class="cls-5" d="M947.49,257.56A32.79,32.79,0,0,0,947,263q0,7.2,8.1,7.2a14.36,14.36,0,0,0,11-4.65l8.4-47.85H1000l-13.2,74.55q-3.3,19.05-15.07,30.15t-26.93,11.1q-15.15,0-21.82-5.55a18,18,0,0,1-6.68-14.55q0-12.75,15.75-22.65-8.55-2.1-10.8-8.55a22.94,22.94,0,0,1-1.35-8.1,57.4,57.4,0,0,1,.75-9.15l8.4-47.25h25.5Zm.75,54.45q9.75,0,12.75-17.7l1.5-8.7q-20.85,9.75-20.85,19.65a7,7,0,0,0,1.73,4.88A6.28,6.28,0,0,0,948.24,312Z"/><path class="cls-6" d="M1070.64,312.69q-31.2,0-31.2-21.6a37.77,37.77,0,0,1,.6-6.45l3.15-18.6q2.4-14.4,13.13-22.05t27.22-7.8q31.95,0,32,22.2a30.52,30.52,0,0,1-1.12,8.62,14.46,14.46,0,0,1-2.33,5.18l-1.2,1.5h-25.5a10.08,10.08,0,0,0,3.75-7.8q0-8.1-8.1-8.1a12.54,12.54,0,0,0-8.25,2.85q-3.45,2.85-4.5,8.7l-2,11a14.55,14.55,0,0,0-.3,2.85q0,8,9.9,7.95a9.27,9.27,0,0,0,5.93-2.1,7.79,7.79,0,0,0,3.07-4.65l24.9.3Q1104.84,312.69,1070.64,312.69Z"/><path class="cls-7" d="M1167.69,236.34q16.2,0,24.45,7,6.45,5.55,6.45,15.45a38.32,38.32,0,0,1-.75,7.2l-3.15,17.55q-2.85,15.9-13.28,22.5t-27.82,6.6q-17.4,0-25.5-6.6-6-4.95-6-14.85a43.84,43.84,0,0,1,.75-7.65L1126,266Q1131.24,236.34,1167.69,236.34Zm4,32.7a20.13,20.13,0,0,0,.3-3.83,9.42,9.42,0,0,0-2-5.17q-2-2.85-6.83-2.85a11.22,11.22,0,0,0-8.17,3.22,15.17,15.17,0,0,0-4.2,8.63l-2,11.25a20,20,0,0,0-.3,3.82,8.78,8.78,0,0,0,1.95,5q2,2.7,6.82,2.7a11,11,0,0,0,8.18-3.38,15.49,15.49,0,0,0,4.2-8.17Z"/><path class="cls-8" d="M1277.79,287.49q0,3.9,4,3.9a13.61,13.61,0,0,0,6.68-1.5l-.75,16.95a25,25,0,0,1-16.2,5.85q-16.5,0-18.3-12-7.5,12-22,12-24.6,0-24.6-21.15a47.11,47.11,0,0,1,.75-8l3.15-17.55q2.4-13.5,11-21.53t23.93-8q9.45,0,15,4l7.65-43.8h25.65l-15.75,88.95A10.93,10.93,0,0,0,1277.79,287.49Zm-44.4-7.2a18.19,18.19,0,0,0-.3,3.75,6.84,6.84,0,0,0,2.25,4.72q2.25,2.33,7.57,2.33a12.2,12.2,0,0,0,9.23-4.2l4.5-25.2q-1.65-3.75-7.8-3.75-11.55,0-13.5,11.1Z"/><path class="cls-9" d="M1330.89,312.69q-31.22,0-31.2-21.6a37.77,37.77,0,0,1,.6-6.45l3.15-18.6q2.55-14.4,13.27-22.13t28.43-7.72q30.15,0,30.15,22.8a48.92,48.92,0,0,1-.6,7.2l-1.8,10.65h-45.75l-.6,3.45a19.15,19.15,0,0,0-.3,3.3q0,8.25,9.75,8.25a9,9,0,0,0,6.15-2.25,8.64,8.64,0,0,0,3-5.25l24.9.3Q1365.09,312.69,1330.89,312.69Zm18-45a21.34,21.34,0,0,0,.6-4.73,6.88,6.88,0,0,0-2-4.42q-1.95-2.25-6.23-2.25a12.11,12.11,0,0,0-7.8,2.85q-3.52,2.85-4.87,8.55Z"/><path class="cls-10" d="M1456.13,253.74a32.59,32.59,0,0,1-5.1,16.95l-1.65,2.1h-22.65a11.15,11.15,0,0,0,3.75-8.55,6,6,0,0,0-1.72-4.43,6.39,6.39,0,0,0-4.73-1.72q-5.1,0-8.85,5.1l-8.4,47.4h-25.5L1394,238.44h23.7l-1.8,10.05q8.55-12.15,20.7-12.15,9.75,0,14.63,4.65T1456.13,253.74Z"/><path class="cls-11" d="M1535.48,254a15.41,15.41,0,0,1-3,9.15h-24.6a3.51,3.51,0,0,0,1.2-3,3.81,3.81,0,0,0-2.4-3.38,13.06,13.06,0,0,0-6.15-1.27q-11.25,0-11.25,6.9,0,2.7,4.2,3.9a68.78,68.78,0,0,0,10.2,2,112,112,0,0,1,12,2.17,21,21,0,0,1,10.2,5.63q4.2,4.2,4.2,11.25,0,12.45-10,18.9t-29,6.45q-19,0-26.7-6.15-6-4.8-6-13.2a28.47,28.47,0,0,1,.45-4.95l25.05-.3q-.3,2.1,2.48,3.67t8.17,1.58q5.4,0,7.8-1.13a4.26,4.26,0,0,0,2.4-4.27q0-2.1-4.2-2.93t-10.27-1.42a102.33,102.33,0,0,1-12.15-1.95,20,20,0,0,1-10.28-5.7q-4.2-4.35-4.2-11.4,0-13.65,10.58-21t30.52-7.35Q1535.48,236.19,1535.48,254Z"/></g><g id="Livello_3" data-name="Livello 3"><path class="cls-12" d="M447.19,139.86c0-9.61-4-16.38-12.25-21.06-12.37-7-24.63-14.21-36.94-21.31q-29.82-17.2-59.66-34.38c-14.47-8.35-28.81-16.92-43.41-25C272.25,25.47,250.47,11.24,227,0h-8c-6.62,3.66-13.3,7.21-19.84,11-17,9.85-33.93,19.81-50.88,29.72-12.4,7-24.85,13.89-37.18,21C78.43,80.57,45.81,99.61,13,118.34c-8.77,5-13.13,11.8-13.11,22q.2,114.48,0,229c0,10.47,4.5,17.27,13.44,22.35,31,17.6,61.72,35.57,92.58,53.35q25.19,14.5,50.45,28.88C174.12,484.23,192,494.28,209.58,505c9.59,5.85,18.28,6,27.84,0,16-9.94,32.42-19.31,48.84-28.53,25.1-14.09,49.84-28.77,74.9-42.91,24.64-13.91,49-28.34,73.54-42.38,8.41-4.81,12.52-11.6,12.5-21.42Q447,254.82,447.19,139.86ZM404,362.71Q350,393.82,296,425.1c-22.38,12.93-44.82,25.74-67.1,38.84-4,2.34-6.89,2.26-10.87-.07-20.12-11.77-40.44-23.2-60.69-34.75-7.57-5.38-15.91-9.46-23.9-14.14-16.24-9.54-32.61-18.86-48.92-28.29-13.88-8-27.7-16.14-41.64-24-2.4-1.36-3.12-2.87-3.11-5.49q.09-102.24,0-204.47c0-3,1.15-4.36,3.55-5.74q41.15-23.61,82.18-47.43c8-4.63,16-9.36,23.93-14C172.52,72.21,195.67,59,218.7,45.58c3.47-2,6.14-2,9.58,0q78.9,45.74,157.91,91.29c6,3.48,12,7.09,18.08,10.43a5,5,0,0,1,3,5q-.09,102.51,0,205C407.29,360,406.33,361.39,404,362.71Z"/><path class="cls-13" d="M277.93,197.09c.08-9.23-5.05-16.91-12.63-19.36-9.55-3.09-18.24-.19-23.55,7.93a57.51,57.51,0,0,0-3.18,5.62q-33,66-66,132.07a41.78,41.78,0,0,0-2.51,5.94,19.54,19.54,0,0,0,14.14,25.4c9.91,2.45,18-1.66,23.35-12.2,9-17.87,17.93-35.83,26.92-53.74,13.5-26.9,26.25-54.18,40.38-80.76C276.71,204.45,278.26,200.8,277.93,197.09Z"/><path class="cls-14" d="M99.71,162.49A11.88,11.88,0,0,0,100,145.2c-4.73-4.62-12.08-4.56-17.11.39q-14.83,14.63-29.45,29.46c-5.08,5.15-5.09,12.11,0,17.26q14.63,14.83,29.44,29.46a11.32,11.32,0,0,0,8.79,3.66,15.09,15.09,0,0,0,3.52-.4c8.7-2.69,11.33-13.49,4.49-20.12-6.53-6.34-12.63-13.09-19.25-19.34-1.51-1.42-1.54-2.32,0-3.76C87.07,175.58,93.11,168.76,99.71,162.49Z"/><path class="cls-15" d="M361.12,280a11.31,11.31,0,0,0-8.79-3.65,15.09,15.09,0,0,0-3.52.4c-8.7,2.69-11.33,13.49-4.49,20.12,6.53,6.34,12.63,13.09,19.25,19.33,1.51,1.43,1.54,2.33,0,3.77-6.63,6.23-12.67,13.05-19.27,19.32a11.88,11.88,0,0,0-.32,17.29c4.72,4.61,12.08,4.56,17.11-.4q14.83-14.61,29.45-29.45c5.08-5.15,5.09-12.11,0-17.27C380.81,299.6,371,289.82,361.12,280Z"/><path class="cls-16" d="M201.21,235.75,202,218.8a12.45,12.45,0,0,1-6.15,1.5q-4.5,0-4.5-4.05a10.1,10.1,0,0,1,.15-1.65l4-22.35a53.77,53.77,0,0,0,.9-10.2A17.12,17.12,0,0,0,193.26,172q-4.5-6.75-19.65-6.75a27.11,27.11,0,0,0-20.7,8.85l8.55-48.45H136L115.86,239.5h25.5l8.4-47.4q4.2-5.1,11.78-5.1t7.57,7.2a32.79,32.79,0,0,1-.45,5.4l-3.3,18.45a37.77,37.77,0,0,0-.6,6.45q0,17.1,20.4,17.1A24.44,24.44,0,0,0,201.21,235.75Z"/><path class="cls-17" d="M294.41,279.93q-16.5.15-27.22,7.8t-13.13,22l-3.15,18.6a37.77,37.77,0,0,0-.6,6.45q0,21.6,31.2,21.6,34.2,0,39.15-28.05l-24.9-.3a7.79,7.79,0,0,1-3.07,4.65,9.27,9.27,0,0,1-5.93,2.1q-9.9,0-9.9-7.95a14.55,14.55,0,0,1,.3-2.85l1.95-10.95q1-5.85,4.5-8.7a12.54,12.54,0,0,1,8.25-2.85q8.1,0,8.1,8.1a10.08,10.08,0,0,1-3.75,7.8h25.5l1.2-1.5a14.39,14.39,0,0,0,2.33-5.17,30.6,30.6,0,0,0,1.12-8.63Q326.36,279.93,294.41,279.93Z"/></g></svg>