<svg xmlns="http://www.w3.org/2000/svg" xmlns:xlink="http://www.w3.org/1999/xlink" viewBox="0 0 460.29 522.73"><defs><style>.cls-1{fill:url(#Sfumatura_senza_nome_56);}.cls-2{fill:url(#Sfumatura_senza_nome_56-2);}.cls-3{fill:url(#Sfumatura_senza_nome_56-3);}.cls-4{fill:url(#Sfumatura_senza_nome_56-4);}.cls-5{fill:url(#Sfumatura_senza_nome_56-5);}.cls-6{fill:url(#Sfumatura_senza_nome_56-6);}</style><linearGradient id="Sfumatura_senza_nome_56" x1="-41.97" y1="-19.71" x2="328.37" y2="362.92" gradientUnits="userSpaceOnUse"><stop offset="0" stop-color="#6a4795"/><stop offset="0.51" stop-color="#6c4897"/><stop offset="0.63" stop-color="#694692"/><stop offset="0.77" stop-color="#5e3f85"/><stop offset="0.92" stop-color="#4d346f"/><stop offset="1" stop-color="#422c60"/></linearGradient><linearGradient id="Sfumatura_senza_nome_56-2" x1="-47.64" y1="-14.16" x2="322.9" y2="368.67" xlink:href="#Sfumatura_senza_nome_56"/><linearGradient id="Sfumatura_senza_nome_56-3" x1="-74.92" y1="12.25" x2="295.62" y2="395.08" xlink:href="#Sfumatura_senza_nome_56"/><linearGradient id="Sfumatura_senza_nome_56-4" x1="-7.02" y1="-53.47" x2="363.52" y2="329.36" xlink:href="#Sfumatura_senza_nome_56"/><linearGradient id="Sfumatura_senza_nome_56-5" x1="-49.86" y1="-12.01" x2="320.68" y2="370.82" xlink:href="#Sfumatura_senza_nome_56"/><linearGradient id="Sfumatura_senza_nome_56-6" x1="-40.43" y1="-21.13" x2="330.11" y2="361.7" xlink:href="#Sfumatura_senza_nome_56"/></defs><title>Tavola disegno 4</title><g id="Livello_3" data-name="Livello 3"><path class="cls-1" d="M453.79,146.67c0-9.59-4-16.35-12.25-21-12.37-7-24.63-14.19-36.94-21.28Q374.78,87.19,344.94,70c-14.47-8.34-28.81-16.9-43.41-25-21.64-12-42.45-25.48-64.68-36.44A15.36,15.36,0,0,0,230,7h-.38a15.57,15.57,0,0,0-7.49,1.92c-5.47,3-10.95,5.94-16.34,9.06-17,9.84-33.93,19.78-50.88,29.68-12.4,7-24.85,13.87-37.18,21C85,87.47,52.41,106.48,19.61,125.18c-8.77,5-13.13,11.79-13.11,22q.2,114.33,0,228.64c0,10.45,4.5,17.24,13.44,22.32,31,17.57,61.72,35.52,92.58,53.27Q137.7,465.91,163,480.26c17.76,10.31,35.68,20.34,53.22,31,9.59,5.84,18.28,6,27.84,0,16-9.93,32.42-19.28,48.84-28.49,25.1-14.07,49.84-28.73,74.9-42.85,24.64-13.89,49-28.3,73.54-42.32,8.41-4.81,12.52-11.59,12.5-21.39Q453.64,261.47,453.79,146.67ZM410.63,369.22q-54.06,31.06-108,62.3c-22.38,12.91-44.82,25.7-67.1,38.79-4,2.33-6.89,2.25-10.87-.07-19.93-11.64-40-22.95-60.1-34.37-.39-.22-.78-.47-1.15-.73C156,430,147.83,426,140,421.41c-16.24-9.52-32.61-18.83-48.92-28.25-13.88-8-27.7-16.11-41.64-24-2.4-1.36-3.12-2.87-3.11-5.49q.09-102.09,0-204.18c0-3,1.15-4.36,3.55-5.74Q91,130.2,132.07,106.4c8-4.62,16-9.35,23.93-14,23.12-13.26,46.27-26.44,69.3-39.86,3.47-2,6.14-2,9.58,0q78.9,45.67,157.91,91.17c6,3.47,12,7.08,18.08,10.41a5,5,0,0,1,3,5q-.09,102.36,0,204.72C413.89,366.54,412.93,367.9,410.63,369.22Z"/><path class="cls-2" d="M284.53,204.1c.08-9.23-5-16.91-12.63-19.36-9.55-3.09-18.24-.19-23.55,7.93a57.51,57.51,0,0,0-3.18,5.62q-33,66-66,132.07a41.78,41.78,0,0,0-2.51,5.94,19.54,19.54,0,0,0,14.14,25.4c9.91,2.45,18-1.66,23.35-12.2,9-17.87,17.93-35.83,26.92-53.74,13.5-26.9,26.25-54.18,40.38-80.76C283.31,211.46,284.86,207.81,284.53,204.1Z"/><path class="cls-3" d="M106.31,169.5a11.88,11.88,0,0,0,.32-17.29c-4.73-4.62-12.08-4.56-17.11.39q-14.83,14.63-29.45,29.46c-5.08,5.15-5.09,12.11,0,17.26q14.63,14.84,29.44,29.46a11.32,11.32,0,0,0,8.79,3.66,15.09,15.09,0,0,0,3.52-.4c8.7-2.69,11.33-13.49,4.49-20.12-6.53-6.34-12.63-13.09-19.25-19.34-1.51-1.42-1.54-2.32,0-3.76C93.67,182.59,99.71,175.77,106.31,169.5Z"/><path class="cls-4" d="M367.72,287a11.31,11.31,0,0,0-8.79-3.65,15.09,15.09,0,0,0-3.52.4c-8.7,2.69-11.33,13.49-4.49,20.12,6.53,6.34,12.63,13.09,19.25,19.33,1.51,1.43,1.54,2.33,0,3.77-6.63,6.23-12.67,13.05-19.27,19.32a11.88,11.88,0,0,0-.32,17.29c4.72,4.61,12.08,4.56,17.11-.4q14.83-14.61,29.45-29.45c5.08-5.15,5.09-12.11,0-17.27C387.41,306.61,377.57,296.83,367.72,287Z"/><path class="cls-5" d="M207.81,242.76l.75-16.95a12.45,12.45,0,0,1-6.15,1.5q-4.5,0-4.5-4.05a10.1,10.1,0,0,1,.15-1.65l4.05-22.35a53.77,53.77,0,0,0,.9-10.2A17.12,17.12,0,0,0,199.86,179q-4.5-6.75-19.65-6.75a27.11,27.11,0,0,0-20.7,8.85l8.55-48.45h-25.5l-20.1,113.85H148l8.4-47.4q4.2-5.1,11.78-5.1t7.57,7.2a32.79,32.79,0,0,1-.45,5.4L172,225.06a37.77,37.77,0,0,0-.6,6.45q0,17.1,20.4,17.1A24.44,24.44,0,0,0,207.81,242.76Z"/><path class="cls-6" d="M301,286.94q-16.5.15-27.22,7.8t-13.13,22.05l-3.15,18.6a37.77,37.77,0,0,0-.6,6.45q0,21.6,31.2,21.6,34.2,0,39.15-28.05l-24.9-.3a7.79,7.79,0,0,1-3.07,4.65,9.27,9.27,0,0,1-5.93,2.1q-9.9,0-9.9-7.95a14.55,14.55,0,0,1,.3-2.85l1.95-11q1.05-5.85,4.5-8.7a12.54,12.54,0,0,1,8.25-2.85q8.1,0,8.1,8.1a10.08,10.08,0,0,1-3.75,7.8h25.5l1.2-1.5a14.39,14.39,0,0,0,2.33-5.17,30.6,30.6,0,0,0,1.12-8.63Q333,286.94,301,286.94Z"/></g></svg>